# xmcd
#
# Track frame offsets:
#	150
#	11034
#	27680
#	44127
#	58637
#	70188
#	88160
#	101426
#	114074
#	131896
#	146283
#	164298
#	177753
#	192365
#	206649
#
# Disc length: 3009 seconds
#
# Revision: 0
# Processed by: cddbd v1.5.2PL0 Copyright (c) Steve Scherf et al.
# Submitted via: audiograbber 1.83.01
#
DISCID=d70bbf0f
DTITLE=Blaskapelle Bad Kohlgrub - Treu zur Blasmusik
DYEAR=1900
DGENRE=
TTITLE0=Treu zur Blasmusik
TTITLE1=Polka in Gold
TTITLE2=Polka für Zwei
TTITLE3=Gruß an Schwabhausen
TTITLE4=Musikantengrüße
TTITLE5=Venova
TTITLE6=Teppichklopfer-Polka
TTITLE7=Böhmischer Wind
TTITLE8=Silberfäden
TTITLE9=Montana Marsch
TTITLE10=Daheim in Böhmen
TTITLE11=Blasmusik mit Herz
TTITLE12=Zauberhafte Klarinetten
TTITLE13=Ein Leben mit Blasmusik
TTITLE14=Die Sonne geht auf
EXTD=
EXTT0=
EXTT1=
EXTT2=
EXTT3=
EXTT4=
EXTT5=
EXTT6=
EXTT7=
EXTT8=
EXTT9=
EXTT10=
EXTT11=
EXTT12=
EXTT13=
EXTT14=
PLAYORDER=
